<svg width="290" height="171" viewBox="0 0 290 171" fill="none" xmlns="http://www.w3.org/2000/svg">
<g filter="url(#filter0_d)">
<path fill-rule="evenodd" clip-rule="evenodd" d="M99.9078 11L88 0L76.0922 11H34C17.4315 11 4 24.4315 4 41V133C4 149.569 17.4315 163 34 163H256C272.569 163 286 149.569 286 133V41C286 24.4315 272.569 11 256 11H99.9078Z" fill="url(#paint0_linear)"/>
</g>
<path d="M37.7568 56H36.4375V47.127H31.5293V56H30.2168V46.0469H37.7568V56ZM46.1992 52.3838C46.1992 53.5094 45.9417 54.4163 45.4268 55.1045C44.9118 55.7926 44.2145 56.1367 43.335 56.1367C42.4372 56.1367 41.7308 55.8519 41.2158 55.2822V58.8438H39.9512V48.6035H41.1064L41.168 49.4238C41.6829 48.7858 42.3984 48.4668 43.3145 48.4668C44.2031 48.4668 44.9049 48.8018 45.4199 49.4717C45.9395 50.1416 46.1992 51.0736 46.1992 52.2676V52.3838ZM44.9346 52.2402C44.9346 51.4062 44.7568 50.7477 44.4014 50.2646C44.0459 49.7816 43.5583 49.54 42.9385 49.54C42.1729 49.54 41.5986 49.8796 41.2158 50.5586V54.0928C41.5941 54.7673 42.1729 55.1045 42.9521 55.1045C43.5583 55.1045 44.0391 54.8652 44.3945 54.3867C44.7546 53.9036 44.9346 53.1882 44.9346 52.2402ZM52.5977 48.6035H53.8623V56H52.5977V50.6064L49.1865 56H47.9219V48.6035H49.1865V54.0039L52.5977 48.6035ZM56.0088 56V48.6035H58.8936C59.8779 48.6035 60.6322 48.7767 61.1562 49.123C61.6849 49.4648 61.9492 49.9684 61.9492 50.6338C61.9492 50.9756 61.8467 51.2855 61.6416 51.5635C61.4365 51.8369 61.1335 52.0465 60.7324 52.1924C61.179 52.2972 61.5368 52.5023 61.8057 52.8076C62.0791 53.113 62.2158 53.4775 62.2158 53.9014C62.2158 54.5804 61.9652 55.0999 61.4639 55.46C60.9671 55.82 60.263 56 59.3516 56H56.0088ZM57.2734 52.7529V54.9814H59.3652C59.8939 54.9814 60.2881 54.8835 60.5479 54.6875C60.8122 54.4915 60.9443 54.2158 60.9443 53.8604C60.9443 53.1221 60.402 52.7529 59.3174 52.7529H57.2734ZM57.2734 51.7412H58.9072C60.0921 51.7412 60.6846 51.3949 60.6846 50.7021C60.6846 50.0094 60.124 49.6517 59.0029 49.6289H57.2734V51.7412ZM66.96 56.1367C65.9574 56.1367 65.1416 55.8086 64.5127 55.1523C63.8838 54.4915 63.5693 53.6097 63.5693 52.5068V52.2744C63.5693 51.5407 63.7083 50.8867 63.9863 50.3125C64.2689 49.7337 64.6608 49.2826 65.1621 48.959C65.668 48.6309 66.2148 48.4668 66.8027 48.4668C67.7643 48.4668 68.5117 48.7835 69.0449 49.417C69.5781 50.0505 69.8447 50.9574 69.8447 52.1377V52.6641H64.834C64.8522 53.3932 65.0641 53.9834 65.4697 54.4346C65.8799 54.8812 66.3994 55.1045 67.0283 55.1045C67.4749 55.1045 67.8532 55.0133 68.1631 54.8311C68.473 54.6488 68.7441 54.4072 68.9766 54.1064L69.749 54.708C69.1292 55.6605 68.1995 56.1367 66.96 56.1367ZM66.8027 49.5059C66.2923 49.5059 65.8639 49.6927 65.5176 50.0664C65.1712 50.4355 64.957 50.9551 64.875 51.625H68.5801V51.5293C68.5436 50.8867 68.3704 50.39 68.0605 50.0391C67.7507 49.6836 67.3314 49.5059 66.8027 49.5059ZM76.7285 49.6289H74.2471V56H72.9824V49.6289H70.5488V48.6035H76.7285V49.6289ZM79.374 53.1904H78.2324L78.1436 46.0469H79.4697L79.374 53.1904ZM78.0957 55.3643C78.0957 55.1592 78.1572 54.9883 78.2803 54.8516C78.4079 54.7103 78.5947 54.6396 78.8408 54.6396C79.0869 54.6396 79.2738 54.7103 79.4014 54.8516C79.529 54.9883 79.5928 55.1592 79.5928 55.3643C79.5928 55.5693 79.529 55.7402 79.4014 55.877C79.2738 56.0091 79.0869 56.0752 78.8408 56.0752C78.5947 56.0752 78.4079 56.0091 78.2803 55.877C78.1572 55.7402 78.0957 55.5693 78.0957 55.3643ZM94.1943 58.4404H92.8887V56H85.7451V58.4473H84.4326L84.4258 54.9268H85.2393C85.6676 54.4437 86.0072 53.7965 86.2578 52.9854C86.513 52.1696 86.6725 51.2764 86.7363 50.3057L86.9551 46.0469H92.9092V54.9268H94.208L94.1943 58.4404ZM86.7363 54.9268H91.5898V47.127H88.2197L88.0762 50.0527C88.0169 51.1966 87.8643 52.1719 87.6182 52.9785C87.3766 53.7852 87.0827 54.4346 86.7363 54.9268ZM101.741 48.6035V56H100.47V49.6494H97.9541L97.8037 52.418C97.7217 53.6895 97.5075 54.5986 97.1611 55.1455C96.8193 55.6924 96.2747 55.9772 95.5273 56H95.0215V54.8857L95.3838 54.8584C95.7939 54.8128 96.0879 54.5758 96.2656 54.1475C96.4434 53.7191 96.5573 52.9261 96.6074 51.7686L96.7441 48.6035H101.741ZM109.425 48.6035V56H108.153V53.1221H106.246L104.503 56H103.136L104.995 52.9307C104.521 52.7575 104.157 52.4909 103.901 52.1309C103.651 51.7663 103.525 51.3424 103.525 50.8594C103.525 50.1849 103.778 49.6426 104.284 49.2324C104.79 48.8177 105.467 48.6081 106.314 48.6035H109.425ZM104.797 50.873C104.797 51.2331 104.92 51.5247 105.166 51.748C105.412 51.9668 105.738 52.0785 106.144 52.083H108.153V49.6289H106.335C105.866 49.6289 105.492 49.7451 105.214 49.9775C104.936 50.2054 104.797 50.5039 104.797 50.873ZM120.971 56H119.706V52.8418H116.309V56H115.037V48.6035H116.309V51.8096H119.706V48.6035H120.971V56ZM127.574 56C127.501 55.8542 127.442 55.5944 127.396 55.2207C126.809 55.8314 126.107 56.1367 125.291 56.1367C124.562 56.1367 123.963 55.9316 123.493 55.5215C123.028 55.1068 122.796 54.5827 122.796 53.9492C122.796 53.179 123.088 52.582 123.671 52.1582C124.259 51.7298 125.084 51.5156 126.146 51.5156H127.376V50.9346C127.376 50.4925 127.244 50.1416 126.979 49.8818C126.715 49.6175 126.326 49.4854 125.811 49.4854C125.359 49.4854 124.981 49.5993 124.676 49.8271C124.37 50.055 124.218 50.3307 124.218 50.6543H122.946C122.946 50.2852 123.076 49.9297 123.336 49.5879C123.6 49.2415 123.956 48.9681 124.402 48.7676C124.854 48.5671 125.348 48.4668 125.886 48.4668C126.738 48.4668 127.406 48.681 127.889 49.1094C128.372 49.5332 128.622 50.1188 128.641 50.8662V54.2705C128.641 54.9495 128.727 55.4896 128.9 55.8906V56H127.574ZM125.476 55.0361C125.872 55.0361 126.248 54.9336 126.604 54.7285C126.959 54.5234 127.216 54.2568 127.376 53.9287V52.4111H126.385C124.835 52.4111 124.061 52.8646 124.061 53.7715C124.061 54.168 124.193 54.4779 124.457 54.7012C124.721 54.9245 125.061 55.0361 125.476 55.0361ZM136.208 56H134.937V53.3203C134.381 53.4661 133.811 53.5391 133.228 53.5391C132.302 53.5391 131.596 53.3021 131.108 52.8281C130.625 52.3542 130.379 51.6797 130.37 50.8047V48.5967H131.635V50.8457C131.658 51.9486 132.188 52.5 133.228 52.5C133.811 52.5 134.381 52.4271 134.937 52.2812V48.6035H136.208V56ZM142.805 56C142.732 55.8542 142.673 55.5944 142.627 55.2207C142.039 55.8314 141.337 56.1367 140.521 56.1367C139.792 56.1367 139.193 55.9316 138.724 55.5215C138.259 55.1068 138.026 54.5827 138.026 53.9492C138.026 53.179 138.318 52.582 138.901 52.1582C139.489 51.7298 140.314 51.5156 141.376 51.5156H142.606V50.9346C142.606 50.4925 142.474 50.1416 142.21 49.8818C141.946 49.6175 141.556 49.4854 141.041 49.4854C140.59 49.4854 140.212 49.5993 139.906 49.8271C139.601 50.055 139.448 50.3307 139.448 50.6543H138.177C138.177 50.2852 138.307 49.9297 138.566 49.5879C138.831 49.2415 139.186 48.9681 139.633 48.7676C140.084 48.5671 140.578 48.4668 141.116 48.4668C141.968 48.4668 142.636 48.681 143.119 49.1094C143.602 49.5332 143.853 50.1188 143.871 50.8662V54.2705C143.871 54.9495 143.958 55.4896 144.131 55.8906V56H142.805ZM140.706 55.0361C141.103 55.0361 141.479 54.9336 141.834 54.7285C142.189 54.5234 142.447 54.2568 142.606 53.9287V52.4111H141.615C140.066 52.4111 139.291 52.8646 139.291 53.7715C139.291 54.168 139.423 54.4779 139.688 54.7012C139.952 54.9245 140.291 55.0361 140.706 55.0361ZM151.917 48.6035V56H150.646V49.6494H148.13L147.979 52.418C147.897 53.6895 147.683 54.5986 147.337 55.1455C146.995 55.6924 146.451 55.9772 145.703 56H145.197V54.8857L145.56 54.8584C145.97 54.8128 146.264 54.5758 146.441 54.1475C146.619 53.7191 146.733 52.9261 146.783 51.7686L146.92 48.6035H151.917ZM158.514 56C158.441 55.8542 158.382 55.5944 158.336 55.2207C157.748 55.8314 157.046 56.1367 156.23 56.1367C155.501 56.1367 154.902 55.9316 154.433 55.5215C153.968 55.1068 153.735 54.5827 153.735 53.9492C153.735 53.179 154.027 52.582 154.61 52.1582C155.198 51.7298 156.023 51.5156 157.085 51.5156H158.315V50.9346C158.315 50.4925 158.183 50.1416 157.919 49.8818C157.655 49.6175 157.265 49.4854 156.75 49.4854C156.299 49.4854 155.921 49.5993 155.615 49.8271C155.31 50.055 155.157 50.3307 155.157 50.6543H153.886C153.886 50.2852 154.016 49.9297 154.275 49.5879C154.54 49.2415 154.895 48.9681 155.342 48.7676C155.793 48.5671 156.287 48.4668 156.825 48.4668C157.677 48.4668 158.345 48.681 158.828 49.1094C159.311 49.5332 159.562 50.1188 159.58 50.8662V54.2705C159.58 54.9495 159.667 55.4896 159.84 55.8906V56H158.514ZM156.415 55.0361C156.812 55.0361 157.188 54.9336 157.543 54.7285C157.898 54.5234 158.156 54.2568 158.315 53.9287V52.4111H157.324C155.775 52.4111 155 52.8646 155 53.7715C155 54.168 155.132 54.4779 155.396 54.7012C155.661 54.9245 156 55.0361 156.415 55.0361ZM171.283 52.3838C171.283 53.5094 171.026 54.4163 170.511 55.1045C169.996 55.7926 169.299 56.1367 168.419 56.1367C167.521 56.1367 166.815 55.8519 166.3 55.2822V58.8438H165.035V48.6035H166.19L166.252 49.4238C166.767 48.7858 167.482 48.4668 168.398 48.4668C169.287 48.4668 169.989 48.8018 170.504 49.4717C171.023 50.1416 171.283 51.0736 171.283 52.2676V52.3838ZM170.019 52.2402C170.019 51.4062 169.841 50.7477 169.485 50.2646C169.13 49.7816 168.642 49.54 168.022 49.54C167.257 49.54 166.683 49.8796 166.3 50.5586V54.0928C166.678 54.7673 167.257 55.1045 168.036 55.1045C168.642 55.1045 169.123 54.8652 169.479 54.3867C169.839 53.9036 170.019 53.1882 170.019 52.2402ZM177.463 56C177.39 55.8542 177.331 55.5944 177.285 55.2207C176.697 55.8314 175.995 56.1367 175.18 56.1367C174.451 56.1367 173.851 55.9316 173.382 55.5215C172.917 55.1068 172.685 54.5827 172.685 53.9492C172.685 53.179 172.976 52.582 173.56 52.1582C174.147 51.7298 174.972 51.5156 176.034 51.5156H177.265V50.9346C177.265 50.4925 177.132 50.1416 176.868 49.8818C176.604 49.6175 176.214 49.4854 175.699 49.4854C175.248 49.4854 174.87 49.5993 174.564 49.8271C174.259 50.055 174.106 50.3307 174.106 50.6543H172.835C172.835 50.2852 172.965 49.9297 173.225 49.5879C173.489 49.2415 173.844 48.9681 174.291 48.7676C174.742 48.5671 175.237 48.4668 175.774 48.4668C176.627 48.4668 177.294 48.681 177.777 49.1094C178.26 49.5332 178.511 50.1188 178.529 50.8662V54.2705C178.529 54.9495 178.616 55.4896 178.789 55.8906V56H177.463ZM175.364 55.0361C175.761 55.0361 176.137 54.9336 176.492 54.7285C176.848 54.5234 177.105 54.2568 177.265 53.9287V52.4111H176.273C174.724 52.4111 173.949 52.8646 173.949 53.7715C173.949 54.168 174.081 54.4779 174.346 54.7012C174.61 54.9245 174.95 55.0361 175.364 55.0361ZM183.759 49.0273C184.688 49.0273 185.431 49.3395 185.987 49.9639C186.548 50.5837 186.828 51.4017 186.828 52.418V52.5342C186.828 53.2314 186.694 53.8558 186.425 54.4072C186.156 54.9541 185.769 55.3802 185.263 55.6855C184.761 55.9863 184.183 56.1367 183.526 56.1367C182.533 56.1367 181.733 55.8063 181.127 55.1455C180.521 54.4801 180.218 53.5892 180.218 52.4727V51.8574C180.218 50.3034 180.505 49.0684 181.079 48.1523C181.658 47.2363 182.51 46.6781 183.636 46.4775C184.274 46.3636 184.704 46.2246 184.928 46.0605C185.151 45.8965 185.263 45.6709 185.263 45.3838H186.302C186.302 45.9535 186.172 46.3978 185.912 46.7168C185.657 47.0358 185.247 47.2614 184.682 47.3936L183.738 47.6055C182.986 47.7832 182.421 48.084 182.043 48.5078C181.669 48.9271 181.425 49.4876 181.312 50.1895C181.981 49.4147 182.797 49.0273 183.759 49.0273ZM183.513 50.0664C182.893 50.0664 182.401 50.276 182.036 50.6953C181.672 51.11 181.489 51.6865 181.489 52.4248V52.5342C181.489 53.3271 181.672 53.9561 182.036 54.4209C182.405 54.8812 182.902 55.1113 183.526 55.1113C184.155 55.1113 184.652 54.8789 185.017 54.4141C185.381 53.9492 185.563 53.2702 185.563 52.377C185.563 51.6797 185.379 51.1214 185.01 50.7021C184.645 50.2783 184.146 50.0664 183.513 50.0664ZM187.915 52.2334C187.915 51.5088 188.056 50.8571 188.339 50.2783C188.626 49.6995 189.022 49.2529 189.528 48.9385C190.039 48.624 190.62 48.4668 191.271 48.4668C192.279 48.4668 193.092 48.8154 193.712 49.5127C194.336 50.21 194.648 51.1374 194.648 52.2949V52.3838C194.648 53.1038 194.509 53.751 194.231 54.3252C193.958 54.8949 193.564 55.3392 193.049 55.6582C192.538 55.9772 191.951 56.1367 191.285 56.1367C190.283 56.1367 189.469 55.7881 188.845 55.0908C188.225 54.3936 187.915 53.4707 187.915 52.3223V52.2334ZM189.187 52.3838C189.187 53.2041 189.376 53.8626 189.754 54.3594C190.137 54.8561 190.647 55.1045 191.285 55.1045C191.928 55.1045 192.438 54.8538 192.816 54.3525C193.195 53.8467 193.384 53.1403 193.384 52.2334C193.384 51.4222 193.19 50.766 192.803 50.2646C192.42 49.7588 191.91 49.5059 191.271 49.5059C190.647 49.5059 190.144 49.7542 189.761 50.251C189.378 50.7477 189.187 51.4587 189.187 52.3838ZM201.58 49.6289H199.099V56H197.834V49.6289H195.4V48.6035H201.58V49.6289ZM204.191 51.1533H206.112C206.951 51.1624 207.614 51.3812 208.102 51.8096C208.589 52.238 208.833 52.819 208.833 53.5527C208.833 54.291 208.582 54.8835 208.081 55.3301C207.58 55.7767 206.905 56 206.058 56H202.927V48.6035H204.191V51.1533ZM211.472 56H210.2V48.6035H211.472V56ZM204.191 52.1855V54.9678H206.071C206.545 54.9678 206.912 54.847 207.172 54.6055C207.432 54.3594 207.562 54.0244 207.562 53.6006C207.562 53.1904 207.434 52.8555 207.179 52.5957C206.928 52.3314 206.575 52.1947 206.119 52.1855H204.191ZM217.269 56V48.6035H220.153C221.138 48.6035 221.892 48.7767 222.416 49.123C222.945 49.4648 223.209 49.9684 223.209 50.6338C223.209 50.9756 223.106 51.2855 222.901 51.5635C222.696 51.8369 222.393 52.0465 221.992 52.1924C222.439 52.2972 222.797 52.5023 223.065 52.8076C223.339 53.113 223.476 53.4775 223.476 53.9014C223.476 54.5804 223.225 55.0999 222.724 55.46C222.227 55.82 221.523 56 220.611 56H217.269ZM218.533 52.7529V54.9814H220.625C221.154 54.9814 221.548 54.8835 221.808 54.6875C222.072 54.4915 222.204 54.2158 222.204 53.8604C222.204 53.1221 221.662 52.7529 220.577 52.7529H218.533ZM218.533 51.7412H220.167C221.352 51.7412 221.944 51.3949 221.944 50.7021C221.944 50.0094 221.384 49.6517 220.263 49.6289H218.533V51.7412ZM231.193 56H229.929V52.8418H226.531V56H225.26V48.6035H226.531V51.8096H229.929V48.6035H231.193V56ZM236.3 56.1367C235.297 56.1367 234.481 55.8086 233.853 55.1523C233.224 54.4915 232.909 53.6097 232.909 52.5068V52.2744C232.909 51.5407 233.048 50.8867 233.326 50.3125C233.609 49.7337 234.001 49.2826 234.502 48.959C235.008 48.6309 235.555 48.4668 236.143 48.4668C237.104 48.4668 237.852 48.7835 238.385 49.417C238.918 50.0505 239.185 50.9574 239.185 52.1377V52.6641H234.174C234.192 53.3932 234.404 53.9834 234.81 54.4346C235.22 54.8812 235.739 55.1045 236.368 55.1045C236.815 55.1045 237.193 55.0133 237.503 54.8311C237.813 54.6488 238.084 54.4072 238.316 54.1064L239.089 54.708C238.469 55.6605 237.539 56.1367 236.3 56.1367ZM236.143 49.5059C235.632 49.5059 235.204 49.6927 234.857 50.0664C234.511 50.4355 234.297 50.9551 234.215 51.625H237.92V51.5293C237.883 50.8867 237.71 50.39 237.4 50.0391C237.09 49.6836 236.671 49.5059 236.143 49.5059ZM243.621 55.1045C244.072 55.1045 244.466 54.9678 244.804 54.6943C245.141 54.4209 245.328 54.0791 245.364 53.6689H246.561C246.538 54.0928 246.392 54.4961 246.123 54.8789C245.854 55.2617 245.494 55.5671 245.043 55.7949C244.596 56.0228 244.122 56.1367 243.621 56.1367C242.614 56.1367 241.812 55.8018 241.215 55.1318C240.622 54.4574 240.326 53.5368 240.326 52.3701V52.1582C240.326 51.4382 240.458 50.7979 240.723 50.2373C240.987 49.6768 241.365 49.2415 241.857 48.9316C242.354 48.6217 242.94 48.4668 243.614 48.4668C244.444 48.4668 245.132 48.7152 245.679 49.2119C246.23 49.7087 246.524 50.3535 246.561 51.1465H245.364C245.328 50.668 245.146 50.276 244.817 49.9707C244.494 49.6608 244.093 49.5059 243.614 49.5059C242.972 49.5059 242.473 49.7383 242.117 50.2031C241.766 50.6634 241.591 51.3311 241.591 52.2061V52.4453C241.591 53.2975 241.766 53.9538 242.117 54.4141C242.468 54.8743 242.969 55.1045 243.621 55.1045ZM252.768 48.6035H254.032V56H252.768V50.6064L249.356 56H248.092V48.6035H249.356V54.0039L252.768 48.6035ZM35.4531 69.6289H32.9717V76H31.707V69.6289H29.2734V68.6035H35.4531V69.6289ZM39.2061 76.1367C38.2035 76.1367 37.3877 75.8086 36.7588 75.1523C36.1299 74.4915 35.8154 73.6097 35.8154 72.5068V72.2744C35.8154 71.5407 35.9544 70.8867 36.2324 70.3125C36.515 69.7337 36.9069 69.2826 37.4082 68.959C37.9141 68.6309 38.4609 68.4668 39.0488 68.4668C40.0104 68.4668 40.7578 68.7835 41.291 69.417C41.8242 70.0505 42.0908 70.9574 42.0908 72.1377V72.6641H37.0801C37.0983 73.3932 37.3102 73.9834 37.7158 74.4346C38.126 74.8812 38.6455 75.1045 39.2744 75.1045C39.721 75.1045 40.0993 75.0133 40.4092 74.8311C40.7191 74.6488 40.9902 74.4072 41.2227 74.1064L41.9951 74.708C41.3753 75.6605 40.4456 76.1367 39.2061 76.1367ZM39.0488 69.5059C38.5384 69.5059 38.11 69.6927 37.7637 70.0664C37.4173 70.4355 37.2031 70.9551 37.1211 71.625H40.8262V71.5293C40.7897 70.8867 40.6165 70.39 40.3066 70.0391C39.9967 69.6836 39.5775 69.5059 39.0488 69.5059ZM45.8643 72.8486H44.9414V76H43.6699V68.6035H44.9414V71.7344H45.7686L48.2568 68.6035H49.7881L46.8623 72.1582L50.0342 76H48.4277L45.8643 72.8486ZM53.541 74.1475L55.2637 68.6035H56.6172L53.6436 77.1416C53.1833 78.3721 52.4518 78.9873 51.4492 78.9873L51.21 78.9668L50.7383 78.8779V77.8525L51.0801 77.8799C51.5085 77.8799 51.8411 77.7933 52.0781 77.6201C52.3197 77.4469 52.5179 77.1302 52.6729 76.6699L52.9531 75.918L50.3145 68.6035H51.6953L53.541 74.1475ZM59.0576 68.6035V74.9678H61.7646V68.6035H63.0293V74.9678H65.7295V68.6035H67.001V74.9678H68.04L67.917 78.1943H66.7822V76H57.7861V68.6035H59.0576ZM74.1172 68.6035H75.3818V76H74.1172V70.6064L70.7061 76H69.4414V68.6035H70.7061V74.0039L74.1172 68.6035ZM82.1973 68.6035H83.4619V76H82.1973V70.6064L78.7861 76H77.5215V68.6035H78.7861V74.0039L82.1973 68.6035ZM82.5391 65.9102C82.5391 66.4616 82.3499 66.9059 81.9717 67.2432C81.598 67.5758 81.1058 67.7422 80.4951 67.7422C79.8844 67.7422 79.39 67.5736 79.0117 67.2363C78.6335 66.8991 78.4443 66.457 78.4443 65.9102H79.4766C79.4766 66.2292 79.5632 66.4798 79.7363 66.6621C79.9095 66.8398 80.1624 66.9287 80.4951 66.9287C80.8141 66.9287 81.0625 66.8398 81.2402 66.6621C81.4225 66.4844 81.5137 66.2337 81.5137 65.9102H82.5391ZM92.2119 69.0273C93.1416 69.0273 93.8844 69.3395 94.4404 69.9639C95.001 70.5837 95.2812 71.4017 95.2812 72.418V72.5342C95.2812 73.2314 95.1468 73.8558 94.8779 74.4072C94.609 74.9541 94.2217 75.3802 93.7158 75.6855C93.2145 75.9863 92.6357 76.1367 91.9795 76.1367C90.986 76.1367 90.1862 75.8063 89.5801 75.1455C88.974 74.4801 88.6709 73.5892 88.6709 72.4727V71.8574C88.6709 70.3034 88.958 69.0684 89.5322 68.1523C90.111 67.2363 90.9632 66.6781 92.0889 66.4775C92.7269 66.3636 93.1576 66.2246 93.3809 66.0605C93.6042 65.8965 93.7158 65.6709 93.7158 65.3838H94.7549C94.7549 65.9535 94.625 66.3978 94.3652 66.7168C94.11 67.0358 93.6999 67.2614 93.1348 67.3936L92.1914 67.6055C91.4395 67.7832 90.8743 68.084 90.4961 68.5078C90.1224 68.9271 89.8786 69.4876 89.7646 70.1895C90.4346 69.4147 91.2503 69.0273 92.2119 69.0273ZM91.9658 70.0664C91.346 70.0664 90.8538 70.276 90.4893 70.6953C90.1247 71.11 89.9424 71.6865 89.9424 72.4248V72.5342C89.9424 73.3271 90.1247 73.9561 90.4893 74.4209C90.8584 74.8812 91.3551 75.1113 91.9795 75.1113C92.6084 75.1113 93.1051 74.8789 93.4697 74.4141C93.8343 73.9492 94.0166 73.2702 94.0166 72.377C94.0166 71.6797 93.832 71.1214 93.4629 70.7021C93.0983 70.2783 92.5993 70.0664 91.9658 70.0664ZM101.27 76C101.197 75.8542 101.137 75.5944 101.092 75.2207C100.504 75.8314 99.8021 76.1367 98.9863 76.1367C98.2572 76.1367 97.6579 75.9316 97.1885 75.5215C96.7236 75.1068 96.4912 74.5827 96.4912 73.9492C96.4912 73.179 96.7829 72.582 97.3662 72.1582C97.9541 71.7298 98.779 71.5156 99.8408 71.5156H101.071V70.9346C101.071 70.4925 100.939 70.1416 100.675 69.8818C100.41 69.6175 100.021 69.4854 99.5059 69.4854C99.0547 69.4854 98.6764 69.5993 98.3711 69.8271C98.0658 70.055 97.9131 70.3307 97.9131 70.6543H96.6416C96.6416 70.2852 96.7715 69.9297 97.0312 69.5879C97.2956 69.2415 97.651 68.9681 98.0977 68.7676C98.5488 68.5671 99.0433 68.4668 99.5811 68.4668C100.433 68.4668 101.101 68.681 101.584 69.1094C102.067 69.5332 102.318 70.1188 102.336 70.8662V74.2705C102.336 74.9495 102.423 75.4896 102.596 75.8906V76H101.27ZM99.1709 75.0361C99.5674 75.0361 99.9434 74.9336 100.299 74.7285C100.654 74.5234 100.912 74.2568 101.071 73.9287V72.4111H100.08C98.5306 72.4111 97.7559 72.8646 97.7559 73.7715C97.7559 74.168 97.888 74.4779 98.1523 74.7012C98.4167 74.9245 98.7562 75.0361 99.1709 75.0361ZM110.382 68.6035V76H109.11V69.6494H106.595L106.444 72.418C106.362 73.6895 106.148 74.5986 105.802 75.1455C105.46 75.6924 104.915 75.9772 104.168 76H103.662V74.8857L104.024 74.8584C104.435 74.8128 104.729 74.5758 104.906 74.1475C105.084 73.7191 105.198 72.9261 105.248 71.7686L105.385 68.6035H110.382ZM116.979 76C116.906 75.8542 116.846 75.5944 116.801 75.2207C116.213 75.8314 115.511 76.1367 114.695 76.1367C113.966 76.1367 113.367 75.9316 112.897 75.5215C112.433 75.1068 112.2 74.5827 112.2 73.9492C112.2 73.179 112.492 72.582 113.075 72.1582C113.663 71.7298 114.488 71.5156 115.55 71.5156H116.78V70.9346C116.78 70.4925 116.648 70.1416 116.384 69.8818C116.119 69.6175 115.73 69.4854 115.215 69.4854C114.764 69.4854 114.385 69.5993 114.08 69.8271C113.775 70.055 113.622 70.3307 113.622 70.6543H112.351C112.351 70.2852 112.48 69.9297 112.74 69.5879C113.005 69.2415 113.36 68.9681 113.807 68.7676C114.258 68.5671 114.752 68.4668 115.29 68.4668C116.142 68.4668 116.81 68.681 117.293 69.1094C117.776 69.5332 118.027 70.1188 118.045 70.8662V74.2705C118.045 74.9495 118.132 75.4896 118.305 75.8906V76H116.979ZM114.88 75.0361C115.276 75.0361 115.652 74.9336 116.008 74.7285C116.363 74.5234 116.621 74.2568 116.78 73.9287V72.4111H115.789C114.24 72.4111 113.465 72.8646 113.465 73.7715C113.465 74.168 113.597 74.4779 113.861 74.7012C114.126 74.9245 114.465 75.0361 114.88 75.0361ZM126.07 76H124.806V72.8418H121.408V76H120.137V68.6035H121.408V71.8096H124.806V68.6035H126.07V76ZM131.074 75.1045C131.525 75.1045 131.92 74.9678 132.257 74.6943C132.594 74.4209 132.781 74.0791 132.817 73.6689H134.014C133.991 74.0928 133.845 74.4961 133.576 74.8789C133.307 75.2617 132.947 75.5671 132.496 75.7949C132.049 76.0228 131.576 76.1367 131.074 76.1367C130.067 76.1367 129.265 75.8018 128.668 75.1318C128.076 74.4574 127.779 73.5368 127.779 72.3701V72.1582C127.779 71.4382 127.911 70.7979 128.176 70.2373C128.44 69.6768 128.818 69.2415 129.311 68.9316C129.807 68.6217 130.393 68.4668 131.067 68.4668C131.897 68.4668 132.585 68.7152 133.132 69.2119C133.683 69.7087 133.977 70.3535 134.014 71.1465H132.817C132.781 70.668 132.599 70.276 132.271 69.9707C131.947 69.6608 131.546 69.5059 131.067 69.5059C130.425 69.5059 129.926 69.7383 129.57 70.2031C129.219 70.6634 129.044 71.3311 129.044 72.2061V72.4453C129.044 73.2975 129.219 73.9538 129.57 74.4141C129.921 74.8743 130.423 75.1045 131.074 75.1045ZM141.875 75.1045C142.326 75.1045 142.72 74.9678 143.058 74.6943C143.395 74.4209 143.582 74.0791 143.618 73.6689H144.814C144.792 74.0928 144.646 74.4961 144.377 74.8789C144.108 75.2617 143.748 75.5671 143.297 75.7949C142.85 76.0228 142.376 76.1367 141.875 76.1367C140.868 76.1367 140.066 75.8018 139.469 75.1318C138.876 74.4574 138.58 73.5368 138.58 72.3701V72.1582C138.58 71.4382 138.712 70.7979 138.977 70.2373C139.241 69.6768 139.619 69.2415 140.111 68.9316C140.608 68.6217 141.194 68.4668 141.868 68.4668C142.698 68.4668 143.386 68.7152 143.933 69.2119C144.484 69.7087 144.778 70.3535 144.814 71.1465H143.618C143.582 70.668 143.399 70.276 143.071 69.9707C142.748 69.6608 142.347 69.5059 141.868 69.5059C141.226 69.5059 140.727 69.7383 140.371 70.2031C140.02 70.6634 139.845 71.3311 139.845 72.2061V72.4453C139.845 73.2975 140.02 73.9538 140.371 74.4141C140.722 74.8743 141.223 75.1045 141.875 75.1045ZM146.353 76V68.6035H149.237C150.222 68.6035 150.976 68.7767 151.5 69.123C152.029 69.4648 152.293 69.9684 152.293 70.6338C152.293 70.9756 152.19 71.2855 151.985 71.5635C151.78 71.8369 151.477 72.0465 151.076 72.1924C151.523 72.2972 151.881 72.5023 152.149 72.8076C152.423 73.113 152.56 73.4775 152.56 73.9014C152.56 74.5804 152.309 75.0999 151.808 75.46C151.311 75.82 150.607 76 149.695 76H146.353ZM147.617 72.7529V74.9814H149.709C150.238 74.9814 150.632 74.8835 150.892 74.6875C151.156 74.4915 151.288 74.2158 151.288 73.8604C151.288 73.1221 150.746 72.7529 149.661 72.7529H147.617ZM147.617 71.7412H149.251C150.436 71.7412 151.028 71.3949 151.028 70.7021C151.028 70.0094 150.468 69.6517 149.347 69.6289H147.617V71.7412ZM153.899 72.2334C153.899 71.5088 154.041 70.8571 154.323 70.2783C154.61 69.6995 155.007 69.2529 155.513 68.9385C156.023 68.624 156.604 68.4668 157.256 68.4668C158.263 68.4668 159.076 68.8154 159.696 69.5127C160.321 70.21 160.633 71.1374 160.633 72.2949V72.3838C160.633 73.1038 160.494 73.751 160.216 74.3252C159.942 74.8949 159.548 75.3392 159.033 75.6582C158.523 75.9772 157.935 76.1367 157.27 76.1367C156.267 76.1367 155.453 75.7881 154.829 75.0908C154.209 74.3936 153.899 73.4707 153.899 72.3223V72.2334ZM155.171 72.3838C155.171 73.2041 155.36 73.8626 155.738 74.3594C156.121 74.8561 156.632 75.1045 157.27 75.1045C157.912 75.1045 158.423 74.8538 158.801 74.3525C159.179 73.8467 159.368 73.1403 159.368 72.2334C159.368 71.4222 159.174 70.766 158.787 70.2646C158.404 69.7588 157.894 69.5059 157.256 69.5059C156.632 69.5059 156.128 69.7542 155.745 70.251C155.362 70.7477 155.171 71.4587 155.171 72.3838ZM165.288 76.1367C164.285 76.1367 163.47 75.8086 162.841 75.1523C162.212 74.4915 161.897 73.6097 161.897 72.5068V72.2744C161.897 71.5407 162.036 70.8867 162.314 70.3125C162.597 69.7337 162.989 69.2826 163.49 68.959C163.996 68.6309 164.543 68.4668 165.131 68.4668C166.092 68.4668 166.84 68.7835 167.373 69.417C167.906 70.0505 168.173 70.9574 168.173 72.1377V72.6641H163.162C163.18 73.3932 163.392 73.9834 163.798 74.4346C164.208 74.8812 164.728 75.1045 165.356 75.1045C165.803 75.1045 166.181 75.0133 166.491 74.8311C166.801 74.6488 167.072 74.4072 167.305 74.1064L168.077 74.708C167.457 75.6605 166.528 76.1367 165.288 76.1367ZM165.131 69.5059C164.62 69.5059 164.192 69.6927 163.846 70.0664C163.499 70.4355 163.285 70.9551 163.203 71.625H166.908V71.5293C166.872 70.8867 166.699 70.39 166.389 70.0391C166.079 69.6836 165.66 69.5059 165.131 69.5059ZM174.421 69.6494H171.01V76H169.738V68.6035H174.421V69.6494ZM175.05 72.2334C175.05 71.5088 175.191 70.8571 175.474 70.2783C175.761 69.6995 176.157 69.2529 176.663 68.9385C177.174 68.624 177.755 68.4668 178.406 68.4668C179.413 68.4668 180.227 68.8154 180.847 69.5127C181.471 70.21 181.783 71.1374 181.783 72.2949V72.3838C181.783 73.1038 181.644 73.751 181.366 74.3252C181.093 74.8949 180.699 75.3392 180.184 75.6582C179.673 75.9772 179.085 76.1367 178.42 76.1367C177.417 76.1367 176.604 75.7881 175.979 75.0908C175.36 74.3936 175.05 73.4707 175.05 72.3223V72.2334ZM176.321 72.3838C176.321 73.2041 176.51 73.8626 176.889 74.3594C177.271 74.8561 177.782 75.1045 178.42 75.1045C179.062 75.1045 179.573 74.8538 179.951 74.3525C180.329 73.8467 180.519 73.1403 180.519 72.2334C180.519 71.4222 180.325 70.766 179.938 70.2646C179.555 69.7588 179.044 69.5059 178.406 69.5059C177.782 69.5059 177.278 69.7542 176.896 70.251C176.513 70.7477 176.321 71.4587 176.321 72.3838ZM189.809 75.1045C190.26 75.1045 190.654 74.9678 190.991 74.6943C191.328 74.4209 191.515 74.0791 191.552 73.6689H192.748C192.725 74.0928 192.579 74.4961 192.311 74.8789C192.042 75.2617 191.682 75.5671 191.23 75.7949C190.784 76.0228 190.31 76.1367 189.809 76.1367C188.801 76.1367 187.999 75.8018 187.402 75.1318C186.81 74.4574 186.514 73.5368 186.514 72.3701V72.1582C186.514 71.4382 186.646 70.7979 186.91 70.2373C187.174 69.6768 187.553 69.2415 188.045 68.9316C188.542 68.6217 189.127 68.4668 189.802 68.4668C190.631 68.4668 191.319 68.7152 191.866 69.2119C192.418 69.7087 192.712 70.3535 192.748 71.1465H191.552C191.515 70.668 191.333 70.276 191.005 69.9707C190.681 69.6608 190.28 69.5059 189.802 69.5059C189.159 69.5059 188.66 69.7383 188.305 70.2031C187.954 70.6634 187.778 71.3311 187.778 72.2061V72.4453C187.778 73.2975 187.954 73.9538 188.305 74.4141C188.656 74.8743 189.157 75.1045 189.809 75.1045ZM199.755 76H198.483V73.3203C197.927 73.4661 197.358 73.5391 196.774 73.5391C195.849 73.5391 195.143 73.3021 194.655 72.8281C194.172 72.3542 193.926 71.6797 193.917 70.8047V68.5967H195.182V70.8457C195.204 71.9486 195.735 72.5 196.774 72.5C197.358 72.5 197.927 72.4271 198.483 72.2812V68.6035H199.755V76ZM204.854 76.1367C203.852 76.1367 203.036 75.8086 202.407 75.1523C201.778 74.4915 201.464 73.6097 201.464 72.5068V72.2744C201.464 71.5407 201.603 70.8867 201.881 70.3125C202.163 69.7337 202.555 69.2826 203.057 68.959C203.562 68.6309 204.109 68.4668 204.697 68.4668C205.659 68.4668 206.406 68.7835 206.939 69.417C207.473 70.0505 207.739 70.9574 207.739 72.1377V72.6641H202.729C202.747 73.3932 202.959 73.9834 203.364 74.4346C203.774 74.8812 204.294 75.1045 204.923 75.1045C205.369 75.1045 205.748 75.0133 206.058 74.8311C206.368 74.6488 206.639 74.4072 206.871 74.1064L207.644 74.708C207.024 75.6605 206.094 76.1367 204.854 76.1367ZM204.697 69.5059C204.187 69.5059 203.758 69.6927 203.412 70.0664C203.066 70.4355 202.852 70.9551 202.77 71.625H206.475V71.5293C206.438 70.8867 206.265 70.39 205.955 70.0391C205.645 69.6836 205.226 69.5059 204.697 69.5059ZM214.623 69.6289H212.142V76H210.877V69.6289H208.443V68.6035H214.623V69.6289ZM220.311 76C220.238 75.8542 220.178 75.5944 220.133 75.2207C219.545 75.8314 218.843 76.1367 218.027 76.1367C217.298 76.1367 216.699 75.9316 216.229 75.5215C215.765 75.1068 215.532 74.5827 215.532 73.9492C215.532 73.179 215.824 72.582 216.407 72.1582C216.995 71.7298 217.82 71.5156 218.882 71.5156H220.112V70.9346C220.112 70.4925 219.98 70.1416 219.716 69.8818C219.451 69.6175 219.062 69.4854 218.547 69.4854C218.096 69.4854 217.717 69.5993 217.412 69.8271C217.107 70.055 216.954 70.3307 216.954 70.6543H215.683C215.683 70.2852 215.812 69.9297 216.072 69.5879C216.337 69.2415 216.692 68.9681 217.139 68.7676C217.59 68.5671 218.084 68.4668 218.622 68.4668C219.474 68.4668 220.142 68.681 220.625 69.1094C221.108 69.5332 221.359 70.1188 221.377 70.8662V74.2705C221.377 74.9495 221.464 75.4896 221.637 75.8906V76H220.311ZM218.212 75.0361C218.608 75.0361 218.984 74.9336 219.34 74.7285C219.695 74.5234 219.953 74.2568 220.112 73.9287V72.4111H219.121C217.572 72.4111 216.797 72.8646 216.797 73.7715C216.797 74.168 216.929 74.4779 217.193 74.7012C217.458 74.9245 217.797 75.0361 218.212 75.0361ZM224.774 73.1904H223.633L223.544 66.0469H224.87L224.774 73.1904ZM223.496 75.3643C223.496 75.1592 223.558 74.9883 223.681 74.8516C223.808 74.7103 223.995 74.6396 224.241 74.6396C224.487 74.6396 224.674 74.7103 224.802 74.8516C224.929 74.9883 224.993 75.1592 224.993 75.3643C224.993 75.5693 224.929 75.7402 224.802 75.877C224.674 76.0091 224.487 76.0752 224.241 76.0752C223.995 76.0752 223.808 76.0091 223.681 75.877C223.558 75.7402 223.496 75.5693 223.496 75.3643Z" fill="white"/>
<path d="M35.8848 103.395H33.1426V111H32.0234V103.395H29.2871V102.469H35.8848V103.395ZM37.3906 106.846H39.0371C39.7559 106.854 40.3242 107.041 40.7422 107.408C41.1602 107.775 41.3691 108.273 41.3691 108.902C41.3691 109.535 41.1543 110.043 40.7246 110.426C40.2949 110.809 39.7168 111 38.9902 111H36.3066V104.66H37.3906V106.846ZM43.6309 111H42.541V104.66H43.6309V111ZM37.3906 107.73V110.115H39.002C39.4082 110.115 39.7227 110.012 39.9453 109.805C40.168 109.594 40.2793 109.307 40.2793 108.943C40.2793 108.592 40.1699 108.305 39.9512 108.082C39.7363 107.855 39.4336 107.738 39.043 107.73H37.3906ZM53.6797 111H52.5957V108.293H49.6836V111H48.5938V104.66H49.6836V107.408H52.5957V104.66H53.6797V111ZM58.0566 111.117C57.1973 111.117 56.498 110.836 55.959 110.273C55.4199 109.707 55.1504 108.951 55.1504 108.006V107.807C55.1504 107.178 55.2695 106.617 55.5078 106.125C55.75 105.629 56.0859 105.242 56.5156 104.965C56.9492 104.684 57.418 104.543 57.9219 104.543C58.7461 104.543 59.3867 104.814 59.8438 105.357C60.3008 105.9 60.5293 106.678 60.5293 107.689V108.141H56.2344C56.25 108.766 56.4316 109.271 56.7793 109.658C57.1309 110.041 57.5762 110.232 58.1152 110.232C58.498 110.232 58.8223 110.154 59.0879 109.998C59.3535 109.842 59.5859 109.635 59.7852 109.377L60.4473 109.893C59.916 110.709 59.1191 111.117 58.0566 111.117ZM57.9219 105.434C57.4844 105.434 57.1172 105.594 56.8203 105.914C56.5234 106.23 56.3398 106.676 56.2695 107.25H59.4453V107.168C59.4141 106.617 59.2656 106.191 59 105.891C58.7344 105.586 58.375 105.434 57.9219 105.434ZM68.416 109.564L70.5723 104.66H71.9258V111H70.8418V106.389L68.791 111H68.041L65.9492 106.289V111H64.8652V104.66H66.2715L68.416 109.564ZM73.3848 107.771C73.3848 107.15 73.5059 106.592 73.748 106.096C73.9941 105.6 74.334 105.217 74.7676 104.947C75.2051 104.678 75.7031 104.543 76.2617 104.543C77.125 104.543 77.8223 104.842 78.3535 105.439C78.8887 106.037 79.1562 106.832 79.1562 107.824V107.9C79.1562 108.518 79.0371 109.072 78.7988 109.564C78.5645 110.053 78.2266 110.434 77.7852 110.707C77.3477 110.98 76.8438 111.117 76.2734 111.117C75.4141 111.117 74.7168 110.818 74.1816 110.221C73.6504 109.623 73.3848 108.832 73.3848 107.848V107.771ZM74.4746 107.9C74.4746 108.604 74.6367 109.168 74.9609 109.594C75.2891 110.02 75.7266 110.232 76.2734 110.232C76.8242 110.232 77.2617 110.018 77.5859 109.588C77.9102 109.154 78.0723 108.549 78.0723 107.771C78.0723 107.076 77.9062 106.514 77.5742 106.084C77.2461 105.65 76.8086 105.434 76.2617 105.434C75.7266 105.434 75.2949 105.646 74.9668 106.072C74.6387 106.498 74.4746 107.107 74.4746 107.9ZM85.4434 108.246H84.6816V111H83.5977V108.246H82.8359L81.0605 111H79.6895L81.957 107.719L79.9062 104.66H81.2188L82.8535 107.285H83.5977V104.66H84.6816V107.285H85.4199L87.0664 104.66H88.3789L86.3223 107.725L88.5898 111H87.2188L85.4434 108.246ZM92.0879 111.117C91.2285 111.117 90.5293 110.836 89.9902 110.273C89.4512 109.707 89.1816 108.951 89.1816 108.006V107.807C89.1816 107.178 89.3008 106.617 89.5391 106.125C89.7812 105.629 90.1172 105.242 90.5469 104.965C90.9805 104.684 91.4492 104.543 91.9531 104.543C92.7773 104.543 93.418 104.814 93.875 105.357C94.332 105.9 94.5605 106.678 94.5605 107.689V108.141H90.2656C90.2812 108.766 90.4629 109.271 90.8105 109.658C91.1621 110.041 91.6074 110.232 92.1465 110.232C92.5293 110.232 92.8535 110.154 93.1191 109.998C93.3848 109.842 93.6172 109.635 93.8164 109.377L94.4785 109.893C93.9473 110.709 93.1504 111.117 92.0879 111.117ZM91.9531 105.434C91.5156 105.434 91.1484 105.594 90.8516 105.914C90.5547 106.23 90.3711 106.676 90.3008 107.25H93.4766V107.168C93.4453 106.617 93.2969 106.191 93.0312 105.891C92.7656 105.586 92.4062 105.434 91.9531 105.434ZM97.0039 104.66V110.115H99.3242V104.66H100.408V110.115H102.723V104.66H103.812V111H95.9141V104.66H97.0039ZM106.707 106.846H108.354C109.072 106.854 109.641 107.041 110.059 107.408C110.477 107.775 110.686 108.273 110.686 108.902C110.686 109.535 110.471 110.043 110.041 110.426C109.611 110.809 109.033 111 108.307 111H105.623V104.66H106.707V106.846ZM106.707 107.73V110.115H108.318C108.725 110.115 109.039 110.012 109.262 109.805C109.484 109.594 109.596 109.307 109.596 108.943C109.596 108.592 109.486 108.305 109.268 108.082C109.053 107.855 108.75 107.738 108.359 107.73H106.707ZM119.727 105.539H117.6V111H116.516V105.539H114.43V104.66H119.727V105.539ZM126.137 107.9C126.137 108.865 125.916 109.643 125.475 110.232C125.033 110.822 124.436 111.117 123.682 111.117C122.912 111.117 122.307 110.873 121.865 110.385V113.438H120.781V104.66H121.771L121.824 105.363C122.266 104.816 122.879 104.543 123.664 104.543C124.426 104.543 125.027 104.83 125.469 105.404C125.914 105.979 126.137 106.777 126.137 107.801V107.9ZM125.053 107.777C125.053 107.062 124.9 106.498 124.596 106.084C124.291 105.67 123.873 105.463 123.342 105.463C122.686 105.463 122.193 105.754 121.865 106.336V109.365C122.189 109.943 122.686 110.232 123.354 110.232C123.873 110.232 124.285 110.027 124.59 109.617C124.898 109.203 125.053 108.59 125.053 107.777ZM131.434 111C131.371 110.875 131.32 110.652 131.281 110.332C130.777 110.855 130.176 111.117 129.477 111.117C128.852 111.117 128.338 110.941 127.936 110.59C127.537 110.234 127.338 109.785 127.338 109.242C127.338 108.582 127.588 108.07 128.088 107.707C128.592 107.34 129.299 107.156 130.209 107.156H131.264V106.658C131.264 106.279 131.15 105.979 130.924 105.756C130.697 105.529 130.363 105.416 129.922 105.416C129.535 105.416 129.211 105.514 128.949 105.709C128.688 105.904 128.557 106.141 128.557 106.418H127.467C127.467 106.102 127.578 105.797 127.801 105.504C128.027 105.207 128.332 104.973 128.715 104.801C129.102 104.629 129.525 104.543 129.986 104.543C130.717 104.543 131.289 104.727 131.703 105.094C132.117 105.457 132.332 105.959 132.348 106.6V109.518C132.348 110.1 132.422 110.562 132.57 110.906V111H131.434ZM129.635 110.174C129.975 110.174 130.297 110.086 130.602 109.91C130.906 109.734 131.127 109.506 131.264 109.225V107.924H130.414C129.086 107.924 128.422 108.312 128.422 109.09C128.422 109.43 128.535 109.695 128.762 109.887C128.988 110.078 129.279 110.174 129.635 110.174ZM138.664 105.539H136.537V111H135.453V105.539H133.367V104.66H138.664V105.539ZM143.82 104.66H144.904V111H143.82V106.377L140.896 111H139.812V104.66H140.896V109.289L143.82 104.66ZM151.355 105.539H149.229V111H148.145V105.539H146.059V104.66H151.355V105.539ZM153.594 106.846H155.24C155.959 106.854 156.527 107.041 156.945 107.408C157.363 107.775 157.572 108.273 157.572 108.902C157.572 109.535 157.357 110.043 156.928 110.426C156.498 110.809 155.92 111 155.193 111H152.51V104.66H153.594V106.846ZM153.594 107.73V110.115H155.205C155.611 110.115 155.926 110.012 156.148 109.805C156.371 109.594 156.482 109.307 156.482 108.943C156.482 108.592 156.373 108.305 156.154 108.082C155.939 107.855 155.637 107.738 155.246 107.73H153.594ZM161.85 110.115L162.225 109.652C162.646 109.105 162.887 108.285 162.945 107.191L163.045 104.66H167.129V110.115H167.943V112.863H166.859V111H162.436V112.863H161.352L161.357 110.115H161.85ZM163.133 110.115H166.045V105.662H164.094L164.029 107.174C163.963 108.436 163.664 109.416 163.133 110.115ZM171.775 111.117C170.916 111.117 170.217 110.836 169.678 110.273C169.139 109.707 168.869 108.951 168.869 108.006V107.807C168.869 107.178 168.988 106.617 169.227 106.125C169.469 105.629 169.805 105.242 170.234 104.965C170.668 104.684 171.137 104.543 171.641 104.543C172.465 104.543 173.105 104.814 173.562 105.357C174.02 105.9 174.248 106.678 174.248 107.689V108.141H169.953C169.969 108.766 170.15 109.271 170.498 109.658C170.85 110.041 171.295 110.232 171.834 110.232C172.217 110.232 172.541 110.154 172.807 109.998C173.072 109.842 173.305 109.635 173.504 109.377L174.166 109.893C173.635 110.709 172.838 111.117 171.775 111.117ZM171.641 105.434C171.203 105.434 170.836 105.594 170.539 105.914C170.242 106.23 170.059 106.676 169.988 107.25H173.164V107.168C173.133 106.617 172.984 106.191 172.719 105.891C172.453 105.586 172.094 105.434 171.641 105.434ZM180.688 111H179.604V108.293H176.691V111H175.602V104.66H176.691V107.408H179.604V104.66H180.688V111ZM183.617 106.846H185.264C185.982 106.854 186.551 107.041 186.969 107.408C187.387 107.775 187.596 108.273 187.596 108.902C187.596 109.535 187.381 110.043 186.951 110.426C186.521 110.809 185.943 111 185.217 111H182.533V104.66H183.617V106.846ZM183.617 107.73V110.115H185.229C185.635 110.115 185.949 110.012 186.172 109.805C186.395 109.594 186.506 109.307 186.506 108.943C186.506 108.592 186.396 108.305 186.178 108.082C185.963 107.855 185.66 107.738 185.27 107.73H183.617ZM193.045 105.557H190.121V111H189.031V104.66H193.045V105.557ZM198.09 104.66H199.174V111H198.09V106.377L195.166 111H194.082V104.66H195.166V109.289L198.09 104.66ZM209.076 111H207.992V105.557H205.074V111H203.984V104.66H209.076V111ZM210.529 107.771C210.529 107.15 210.65 106.592 210.893 106.096C211.139 105.6 211.479 105.217 211.912 104.947C212.35 104.678 212.848 104.543 213.406 104.543C214.27 104.543 214.967 104.842 215.498 105.439C216.033 106.037 216.301 106.832 216.301 107.824V107.9C216.301 108.518 216.182 109.072 215.943 109.564C215.709 110.053 215.371 110.434 214.93 110.707C214.492 110.98 213.988 111.117 213.418 111.117C212.559 111.117 211.861 110.818 211.326 110.221C210.795 109.623 210.529 108.832 210.529 107.848V107.771ZM211.619 107.9C211.619 108.604 211.781 109.168 212.105 109.594C212.434 110.02 212.871 110.232 213.418 110.232C213.969 110.232 214.406 110.018 214.73 109.588C215.055 109.154 215.217 108.549 215.217 107.771C215.217 107.076 215.051 106.514 214.719 106.084C214.391 105.65 213.953 105.434 213.406 105.434C212.871 105.434 212.439 105.646 212.111 106.072C211.783 106.498 211.619 107.107 211.619 107.9ZM219.635 108.299H218.844V111H217.754V104.66H218.844V107.344H219.553L221.686 104.66H222.998L220.49 107.707L223.209 111H221.832L219.635 108.299ZM228.055 111C227.992 110.875 227.941 110.652 227.902 110.332C227.398 110.855 226.797 111.117 226.098 111.117C225.473 111.117 224.959 110.941 224.557 110.59C224.158 110.234 223.959 109.785 223.959 109.242C223.959 108.582 224.209 108.07 224.709 107.707C225.213 107.34 225.92 107.156 226.83 107.156H227.885V106.658C227.885 106.279 227.771 105.979 227.545 105.756C227.318 105.529 226.984 105.416 226.543 105.416C226.156 105.416 225.832 105.514 225.57 105.709C225.309 105.904 225.178 106.141 225.178 106.418H224.088C224.088 106.102 224.199 105.797 224.422 105.504C224.648 105.207 224.953 104.973 225.336 104.801C225.723 104.629 226.146 104.543 226.607 104.543C227.338 104.543 227.91 104.727 228.324 105.094C228.738 105.457 228.953 105.959 228.969 106.6V109.518C228.969 110.1 229.043 110.562 229.191 110.906V111H228.055ZM226.256 110.174C226.596 110.174 226.918 110.086 227.223 109.91C227.527 109.734 227.748 109.506 227.885 109.225V107.924H227.035C225.707 107.924 225.043 108.312 225.043 109.09C225.043 109.43 225.156 109.695 225.383 109.887C225.609 110.078 225.9 110.174 226.256 110.174ZM237.746 104.66H238.83V111H237.746V106.377L234.822 111H233.738V104.66H234.822V109.289L237.746 104.66ZM242.697 106.975L244.104 104.66H245.369L243.295 107.795L245.434 111H244.18L242.715 108.627L241.25 111H239.99L242.129 107.795L240.055 104.66H241.309L242.697 106.975ZM251.574 109.412L253.051 104.66H254.211L251.662 111.979C251.268 113.033 250.641 113.561 249.781 113.561L249.576 113.543L249.172 113.467V112.588L249.465 112.611C249.832 112.611 250.117 112.537 250.32 112.389C250.527 112.24 250.697 111.969 250.83 111.574L251.07 110.93L248.809 104.66H249.992L251.574 109.412ZM34.5312 121.539H32.4043V127H31.3203V121.539H29.2344V120.66H34.5312V121.539ZM37.748 127.117C36.8887 127.117 36.1895 126.836 35.6504 126.273C35.1113 125.707 34.8418 124.951 34.8418 124.006V123.807C34.8418 123.178 34.9609 122.617 35.1992 122.125C35.4414 121.629 35.7773 121.242 36.207 120.965C36.6406 120.684 37.1094 120.543 37.6133 120.543C38.4375 120.543 39.0781 120.814 39.5352 121.357C39.9922 121.9 40.2207 122.678 40.2207 123.689V124.141H35.9258C35.9414 124.766 36.123 125.271 36.4707 125.658C36.8223 126.041 37.2676 126.232 37.8066 126.232C38.1895 126.232 38.5137 126.154 38.7793 125.998C39.0449 125.842 39.2773 125.635 39.4766 125.377L40.1387 125.893C39.6074 126.709 38.8105 127.117 37.748 127.117ZM37.6133 121.434C37.1758 121.434 36.8086 121.594 36.5117 121.914C36.2148 122.23 36.0312 122.676 35.9609 123.25H39.1367V123.168C39.1055 122.617 38.957 122.191 38.6914 121.891C38.4258 121.586 38.0664 121.434 37.6133 121.434ZM44.2637 121.023C45.0605 121.023 45.6973 121.291 46.1738 121.826C46.6543 122.357 46.8945 123.059 46.8945 123.93V124.029C46.8945 124.627 46.7793 125.162 46.5488 125.635C46.3184 126.104 45.9863 126.469 45.5527 126.73C45.123 126.988 44.627 127.117 44.0645 127.117C43.2129 127.117 42.5273 126.834 42.0078 126.268C41.4883 125.697 41.2285 124.934 41.2285 123.977V123.449C41.2285 122.117 41.4746 121.059 41.9668 120.273C42.4629 119.488 43.1934 119.01 44.1582 118.838C44.7051 118.74 45.0742 118.621 45.2656 118.48C45.457 118.34 45.5527 118.146 45.5527 117.9H46.4434C46.4434 118.389 46.332 118.77 46.1094 119.043C45.8906 119.316 45.5391 119.51 45.0547 119.623L44.2461 119.805C43.6016 119.957 43.1172 120.215 42.793 120.578C42.4727 120.938 42.2637 121.418 42.166 122.02C42.7402 121.355 43.4395 121.023 44.2637 121.023ZM44.0527 121.914C43.5215 121.914 43.0996 122.094 42.7871 122.453C42.4746 122.809 42.3184 123.303 42.3184 123.936V124.029C42.3184 124.709 42.4746 125.248 42.7871 125.646C43.1035 126.041 43.5293 126.238 44.0645 126.238C44.6035 126.238 45.0293 126.039 45.3418 125.641C45.6543 125.242 45.8105 124.66 45.8105 123.895C45.8105 123.297 45.6523 122.818 45.3359 122.459C45.0234 122.096 44.5957 121.914 44.0527 121.914ZM52.959 120.66V127H51.8691V124.533H50.2344L48.7402 127H47.5684L49.1621 124.369C48.7559 124.221 48.4434 123.992 48.2246 123.684C48.0098 123.371 47.9023 123.008 47.9023 122.594C47.9023 122.016 48.1191 121.551 48.5527 121.199C48.9863 120.844 49.5664 120.664 50.293 120.66H52.959ZM48.9922 122.605C48.9922 122.914 49.0977 123.164 49.3086 123.355C49.5195 123.543 49.7988 123.639 50.1465 123.643H51.8691V121.539H50.3105C49.9082 121.539 49.5879 121.639 49.3496 121.838C49.1113 122.033 48.9922 122.289 48.9922 122.605ZM62.8555 127H61.7715V124.293H58.8594V127H57.7695V120.66H58.8594V123.408H61.7715V120.66H62.8555V127ZM67.2324 127.117C66.373 127.117 65.6738 126.836 65.1348 126.273C64.5957 125.707 64.3262 124.951 64.3262 124.006V123.807C64.3262 123.178 64.4453 122.617 64.6836 122.125C64.9258 121.629 65.2617 121.242 65.6914 120.965C66.125 120.684 66.5938 120.543 67.0977 120.543C67.9219 120.543 68.5625 120.814 69.0195 121.357C69.4766 121.9 69.7051 122.678 69.7051 123.689V124.141H65.4102C65.4258 124.766 65.6074 125.271 65.9551 125.658C66.3066 126.041 66.752 126.232 67.291 126.232C67.6738 126.232 67.998 126.154 68.2637 125.998C68.5293 125.842 68.7617 125.635 68.9609 125.377L69.623 125.893C69.0918 126.709 68.2949 127.117 67.2324 127.117ZM67.0977 121.434C66.6602 121.434 66.293 121.594 65.9961 121.914C65.6992 122.23 65.5156 122.676 65.4453 123.25H68.6211V123.168C68.5898 122.617 68.4414 122.191 68.1758 121.891C67.9102 121.586 67.5508 121.434 67.0977 121.434ZM75.6055 121.539H73.4785V127H72.3945V121.539H70.3086V120.66H75.6055V121.539ZM79.6016 126.432C79.6016 126.244 79.6562 126.088 79.7656 125.963C79.8789 125.838 80.0469 125.775 80.2695 125.775C80.4922 125.775 80.6602 125.838 80.7734 125.963C80.8906 126.088 80.9492 126.244 80.9492 126.432C80.9492 126.611 80.8906 126.762 80.7734 126.883C80.6602 127.004 80.4922 127.064 80.2695 127.064C80.0469 127.064 79.8789 127.004 79.7656 126.883C79.6562 126.762 79.6016 126.611 79.6016 126.432ZM79.6074 121.258C79.6074 121.07 79.6621 120.914 79.7715 120.789C79.8848 120.664 80.0527 120.602 80.2754 120.602C80.498 120.602 80.666 120.664 80.7793 120.789C80.8965 120.914 80.9551 121.07 80.9551 121.258C80.9551 121.438 80.8965 121.588 80.7793 121.709C80.666 121.83 80.498 121.891 80.2754 121.891C80.0527 121.891 79.8848 121.83 79.7715 121.709C79.6621 121.588 79.6074 121.438 79.6074 121.258ZM85.0449 123.596C85.0449 124.467 84.9297 125.303 84.6992 126.104C84.4727 126.9 84.123 127.637 83.6504 128.312C83.1816 128.988 82.6895 129.469 82.1738 129.754L81.9453 129.092C82.5469 128.631 83.0293 127.916 83.3926 126.947C83.7598 125.975 83.9473 124.896 83.9551 123.713V123.525C83.9551 122.705 83.8691 121.943 83.6973 121.24C83.5254 120.533 83.2852 119.9 82.9766 119.342C82.6719 118.783 82.3281 118.348 81.9453 118.035L82.1738 117.373C82.6895 117.658 83.1797 118.135 83.6445 118.803C84.1133 119.471 84.4629 120.207 84.6934 121.012C84.9277 121.816 85.0449 122.678 85.0449 123.596Z" fill="white"/>
<defs>
<filter id="filter0_d" x="0" y="0" width="290" height="171" filterUnits="userSpaceOnUse" color-interpolation-filters="sRGB">
<feFlood flood-opacity="0" result="BackgroundImageFix"/>
<feColorMatrix in="SourceAlpha" type="matrix" values="0 0 0 0 0 0 0 0 0 0 0 0 0 0 0 0 0 0 127 0" result="hardAlpha"/>
<feOffset dy="4"/>
<feGaussianBlur stdDeviation="2"/>
<feComposite in2="hardAlpha" operator="out"/>
<feColorMatrix type="matrix" values="0 0 0 0 0 0 0 0 0 0 0 0 0 0 0 0 0 0 0.25 0"/>
<feBlend mode="normal" in2="BackgroundImageFix" result="effect1_dropShadow"/>
<feBlend mode="normal" in="SourceGraphic" in2="effect1_dropShadow" result="shape"/>
</filter>
<linearGradient id="paint0_linear" x1="13.3069" y1="3.21711" x2="164.636" y2="141.514" gradientUnits="userSpaceOnUse">
<stop stop-color="#1D346A"/>
<stop offset="1" stop-color="#031634"/>
</linearGradient>
</defs>
</svg>
